<svg width="28" height="28" viewBox="0 0 32 34" fill="none" xmlns="http://www.w3.org/2000/svg">
<path d="M17.6372 2.60669C17.0516 2.15127 16.7589 1.92356 16.4356 1.83603C16.1503 1.75879 15.8497 1.75879 15.5644 1.83603C15.2411 1.92356 14.9484 2.15127 14.3628 2.60669L3.05898 11.3986C2.30337 11.9863 1.92556 12.2801 1.65338 12.6481C1.41228 12.9741 1.23267 13.3413 1.12338 13.7318C1 14.1726 1 14.6512 1 15.6084V27.6667C1 29.5335 1 30.4669 1.36331 31.18C1.68289 31.8072 2.19282 32.3171 2.82003 32.6367C3.53307 33 4.46649 33 6.33333 33H9.66667C10.1334 33 10.3667 33 10.545 32.9092C10.7018 32.8293 10.8293 32.7018 10.9092 32.545C11 32.3667 11 32.1334 11 31.6667V20.6667C11 19.7332 11 19.2665 11.1817 18.91C11.3414 18.5964 11.5964 18.3414 11.91 18.1817C12.2665 18 12.7332 18 13.6667 18H18.3333C19.2668 18 19.7335 18 20.09 18.1817C20.4036 18.3414 20.6586 18.5964 20.8183 18.91C21 19.2665 21 19.7332 21 20.6667V31.6667C21 32.1334 21 32.3667 21.0908 32.545C21.1707 32.7018 21.2982 32.8293 21.455 32.9092C21.6333 33 21.8666 33 22.3333 33H25.6667C27.5335 33 28.4669 33 29.18 32.6367C29.8072 32.3171 30.3171 31.8072 30.6367 31.18C31 30.4669 31 29.5335 31 27.6667V15.6084C31 14.6512 31 14.1726 30.8766 13.7318C30.7673 13.3413 30.5877 12.9741 30.3466 12.6481C30.0744 12.2801 29.6966 11.9863 28.941 11.3986L17.6372 2.60669Z" stroke="#F5F7FA" stroke-width="2" stroke-linecap="round" stroke-linejoin="round"/>
</svg>
