<svg width="28" height="28" viewBox="0 0 36 36" fill="none" xmlns="http://www.w3.org/2000/svg">
<path d="M14.6666 23L9.54116 28.1895C8.82623 28.9134 8.46876 29.2753 8.16151 29.3008C7.89494 29.323 7.63395 29.2158 7.45985 29.0127C7.25918 28.7787 7.25918 28.27 7.25918 27.2526V24.6527C7.25918 23.7399 6.51171 23.0795 5.60859 22.9472V22.9472C3.42282 22.627 1.70621 20.9104 1.38604 18.7247C1.33325 18.3643 1.33325 17.9342 1.33325 17.0741V9.33333C1.33325 6.53307 1.33325 5.13294 1.87822 4.06338C2.35759 3.12257 3.12249 2.35767 4.0633 1.8783C5.13286 1.33333 6.53299 1.33333 9.33325 1.33333H21.6666C24.4668 1.33333 25.867 1.33333 26.9365 1.8783C27.8773 2.35767 28.6423 3.12257 29.1216 4.06338C29.6666 5.13294 29.6666 6.53307 29.6666 9.33333V16.3333M29.6666 34.6667L26.0392 32.1448C25.5293 31.7903 25.2744 31.6131 24.9969 31.4874C24.7507 31.3758 24.4917 31.2947 24.2259 31.2457C23.9263 31.1905 23.6158 31.1905 22.9948 31.1905H19.9999C18.1331 31.1905 17.1997 31.1905 16.4866 30.8272C15.8594 30.5076 15.3495 29.9977 15.0299 29.3704C14.6666 28.6574 14.6666 27.724 14.6666 25.8571V21.6667C14.6666 19.7998 14.6666 18.8664 15.0299 18.1534C15.3495 17.5262 15.8594 17.0162 16.4866 16.6966C17.1997 16.3333 18.1331 16.3333 19.9999 16.3333H29.3333C31.2001 16.3333 32.1335 16.3333 32.8466 16.6966C33.4738 17.0162 33.9837 17.5262 34.3033 18.1534C34.6666 18.8664 34.6666 19.7998 34.6666 21.6667V26.1905C34.6666 27.7436 34.6666 28.5202 34.4129 29.1328C34.0745 29.9495 33.4256 30.5984 32.6089 30.9367C31.9963 31.1905 31.2197 31.1905 29.6666 31.1905V34.6667Z" stroke="#F5F7FA" stroke-width="2" stroke-linecap="round" stroke-linejoin="round"/>
</svg>
