<svg width="24" height="24" viewBox="0 0 32 32" fill="none" xmlns="http://www.w3.org/2000/svg">
<path d="M11.15 11C11.5418 9.88611 12.3153 8.94684 13.3333 8.34855C14.3513 7.75026 15.5482 7.53156 16.712 7.73119C17.8758 7.93081 18.9314 8.53587 19.6918 9.43921C20.4522 10.3426 20.8684 11.4859 20.8667 12.6667C20.8667 16 15.8667 17.6667 15.8667 17.6667M16 24.3333H16.0167M9 31H23C25.8003 31 27.2004 31 28.27 30.455C29.2108 29.9757 29.9757 29.2108 30.455 28.27C31 27.2004 31 25.8003 31 23V9C31 6.19974 31 4.79961 30.455 3.73005C29.9757 2.78924 29.2108 2.02433 28.27 1.54497C27.2004 1 25.8003 1 23 1H9C6.19974 1 4.79961 1 3.73005 1.54497C2.78924 2.02433 2.02433 2.78924 1.54497 3.73005C1 4.79961 1 6.19974 1 9V23C1 25.8003 1 27.2004 1.54497 28.27C2.02433 29.2108 2.78924 29.9757 3.73005 30.455C4.79961 31 6.19974 31 9 31Z" stroke="#F5F7FA" stroke-width="2" stroke-linecap="round" stroke-linejoin="round"/>
</svg>
