<svg width="26" height="34" viewBox="0 0 26 34" fill="none" xmlns="http://www.w3.org/2000/svg">
<path d="M1.33398 5.31618C1.33398 3.69757 1.33398 2.88827 1.67147 2.44215C1.96548 2.0535 2.41485 1.813 2.90131 1.78396C3.45971 1.75062 4.13309 2.19954 5.47985 3.09738L23.0058 14.7813C24.1186 15.5232 24.675 15.8941 24.8689 16.3617C25.0384 16.7704 25.0384 17.2298 24.8689 17.6386C24.675 18.1061 24.1186 18.4771 23.0058 19.2189L5.47985 30.9029C4.13309 31.8007 3.45971 32.2496 2.90131 32.2163C2.41485 32.1873 1.96548 31.9468 1.67147 31.5581C1.33398 31.112 1.33398 30.3027 1.33398 28.6841V5.31618Z" stroke="#F5F7FA" stroke-width="2" stroke-linecap="round" stroke-linejoin="round"/>
</svg>
