<svg width="28" height="28" viewBox="0 0 32 32" fill="none" xmlns="http://www.w3.org/2000/svg">
<path d="M11 26V6.59234C11 5.78978 11 5.3885 11.146 5.06303C11.2747 4.77614 11.4819 4.5315 11.7438 4.35739C12.0408 4.15986 12.4366 4.09389 13.2283 3.96195L27.8949 1.51751C28.9632 1.33946 29.4974 1.25044 29.9136 1.40506C30.2789 1.54074 30.5852 1.80014 30.779 2.13817C31 2.52336 31 3.06487 31 4.14789V22.6667M11 26C11 28.7614 8.76142 31 6 31C3.23858 31 1 28.7614 1 26C1 23.2386 3.23858 21 6 21C8.76142 21 11 23.2386 11 26ZM31 22.6667C31 25.4281 28.7614 27.6667 26 27.6667C23.2386 27.6667 21 25.4281 21 22.6667C21 19.9052 23.2386 17.6667 26 17.6667C28.7614 17.6667 31 19.9052 31 22.6667Z" stroke="#F5F7FA" stroke-width="2" stroke-linecap="round" stroke-linejoin="round"/>
</svg>
