<svg width="36" height="36" viewBox="0 0 36 36" fill="none" xmlns="http://www.w3.org/2000/svg">
<path d="M17.9999 23C20.7613 23 22.9999 20.7614 22.9999 18C22.9999 15.2386 20.7613 13 17.9999 13C15.2385 13 12.9999 15.2386 12.9999 18C12.9999 20.7614 15.2385 23 17.9999 23Z" stroke="#F5F7FA" stroke-width="2" stroke-linecap="round" stroke-linejoin="round"/>
<path d="M29.212 22.5455C29.0104 23.0024 28.9502 23.5094 29.0393 24.0009C29.1284 24.4924 29.3627 24.9459 29.712 25.303L29.803 25.3939C30.0847 25.6754 30.3082 26.0096 30.4607 26.3775C30.6132 26.7453 30.6917 27.1397 30.6917 27.5379C30.6917 27.9361 30.6132 28.3304 30.4607 28.6983C30.3082 29.0662 30.0847 29.4004 29.803 29.6818C29.5215 29.9636 29.1873 30.1871 28.8194 30.3396C28.4516 30.4921 28.0572 30.5706 27.659 30.5706C27.2608 30.5706 26.8665 30.4921 26.4986 30.3396C26.1307 30.1871 25.7965 29.9636 25.5151 29.6818L25.4242 29.5909C25.0671 29.2416 24.6135 29.0073 24.122 28.9182C23.6305 28.8291 23.1236 28.8892 22.6666 29.0909C22.2185 29.283 21.8363 29.6019 21.5671 30.0084C21.2978 30.4149 21.1534 30.8912 21.1514 31.3788V31.6364C21.1514 32.44 20.8322 33.2108 20.2639 33.7791C19.6956 34.3474 18.9248 34.6667 18.1211 34.6667C17.3174 34.6667 16.5467 34.3474 15.9784 33.7791C15.4101 33.2108 15.0908 32.44 15.0908 31.6364V31.5C15.0791 30.9985 14.9168 30.5121 14.6249 30.1041C14.3331 29.6961 13.9253 29.3853 13.4545 29.2121C12.9975 29.0104 12.4905 28.9503 11.999 29.0394C11.5075 29.1285 11.054 29.3628 10.6969 29.7121L10.606 29.803C10.3245 30.0848 9.99034 30.3083 9.62247 30.4608C9.25459 30.6133 8.86027 30.6918 8.46204 30.6918C8.06381 30.6918 7.66949 30.6133 7.30162 30.4608C6.93374 30.3083 6.59953 30.0848 6.3181 29.803C6.03635 29.5216 5.81284 29.1874 5.66034 28.8195C5.50785 28.4516 5.42935 28.0573 5.42935 27.6591C5.42935 27.2609 5.50785 26.8665 5.66034 26.4987C5.81284 26.1308 6.03635 25.7966 6.3181 25.5152L6.40901 25.4242C6.75831 25.0672 6.99262 24.6136 7.08174 24.1221C7.17086 23.6306 7.1107 23.1237 6.90901 22.6667C6.71694 22.2185 6.39803 21.8363 5.99153 21.5671C5.58503 21.2979 5.10869 21.1535 4.62113 21.1515H4.36356C3.55987 21.1515 2.7891 20.8323 2.22081 20.264C1.65252 19.6957 1.33325 18.9249 1.33325 18.1212C1.33325 17.3175 1.65252 16.5468 2.22081 15.9785C2.7891 15.4102 3.55987 15.0909 4.36356 15.0909H4.49992C5.00143 15.0792 5.4878 14.9168 5.89583 14.625C6.30385 14.3332 6.61464 13.9254 6.7878 13.4545C6.98949 12.9976 7.04965 12.4906 6.96053 11.9991C6.87141 11.5076 6.6371 11.0541 6.2878 10.697L6.19689 10.6061C5.91514 10.3246 5.69163 9.99042 5.53913 9.62255C5.38663 9.25467 5.30814 8.86035 5.30814 8.46212C5.30814 8.06389 5.38663 7.66957 5.53913 7.3017C5.69163 6.93382 5.91514 6.59961 6.19689 6.31818C6.47832 6.03643 6.81253 5.81292 7.1804 5.66042C7.54828 5.50793 7.9426 5.42943 8.34083 5.42943C8.73906 5.42943 9.13338 5.50793 9.50125 5.66042C9.86913 5.81292 10.2033 6.03643 10.4848 6.31818L10.5757 6.40909C10.9328 6.75839 11.3863 6.9927 11.8778 7.08182C12.3693 7.17094 12.8763 7.11078 13.3333 6.90909H13.4545C13.9026 6.71702 14.2848 6.39811 14.554 5.99161C14.8232 5.58511 14.9677 5.10877 14.9696 4.62121V4.36364C14.9696 3.55995 15.2889 2.78918 15.8572 2.22089C16.4255 1.6526 17.1962 1.33333 17.9999 1.33333C18.8036 1.33333 19.5744 1.6526 20.1427 2.22089C20.711 2.78918 21.0302 3.55995 21.0302 4.36364V4.5C21.0322 4.98755 21.1766 5.4639 21.4458 5.8704C21.715 6.2769 22.0972 6.59581 22.5454 6.78788C23.0024 6.98957 23.5093 7.04973 24.0008 6.96061C24.4923 6.87149 24.9459 6.63718 25.303 6.28788L25.3939 6.19697C25.6753 5.91522 26.0095 5.69171 26.3774 5.53921C26.7452 5.38671 27.1396 5.30822 27.5378 5.30822C27.936 5.30822 28.3304 5.38671 28.6982 5.53921C29.0661 5.69171 29.4003 5.91522 29.6817 6.19697C29.9635 6.4784 30.187 6.81261 30.3395 7.18048C30.492 7.54836 30.5705 7.94268 30.5705 8.34091C30.5705 8.73914 30.492 9.13346 30.3395 9.50133C30.187 9.86921 29.9635 10.2034 29.6817 10.4848L29.5908 10.5758C29.2415 10.9328 29.0072 11.3864 28.9181 11.8779C28.829 12.3694 28.8891 12.8763 29.0908 13.3333V13.4545C29.2829 13.9027 29.6018 14.2849 30.0083 14.5541C30.4148 14.8233 30.8912 14.9678 31.3787 14.9697H31.6363C32.44 14.9697 33.2107 15.289 33.779 15.8573C34.3473 16.4255 34.6666 17.1963 34.6666 18C34.6666 18.8037 34.3473 19.5745 33.779 20.1427C33.2107 20.711 32.44 21.0303 31.6363 21.0303H31.4999C31.0124 21.0322 30.536 21.1767 30.1295 21.4459C29.723 21.7151 29.4041 22.0973 29.212 22.5455Z" stroke="#F5F7FA" stroke-width="2" stroke-linecap="round" stroke-linejoin="round"/>
</svg>
