<svg width="40" height="40" viewBox="0 0 40 40" fill="none" xmlns="http://www.w3.org/2000/svg">
<path d="M8.33325 31.6667V8.33334M27.3341 10.1327L17.6028 17.9177C16.7131 18.6295 16.2682 18.9854 16.1071 19.4153C15.9659 19.7923 15.9659 20.2077 16.1071 20.5847C16.2682 21.0146 16.7131 21.3705 17.6028 22.0823L27.3341 29.8673C28.721 30.9769 29.4145 31.5317 29.9981 31.5323C30.5057 31.5328 30.9858 31.3021 31.3025 30.9054C31.6666 30.4493 31.6666 29.5612 31.6666 27.785V12.215C31.6666 10.4388 31.6666 9.55075 31.3025 9.09462C30.9858 8.69794 30.5057 8.46716 29.9981 8.46771C29.4145 8.46834 28.721 9.02312 27.3341 10.1327Z" stroke="#F5F7FA" stroke-width="2" stroke-linecap="round" stroke-linejoin="round"/>
</svg>
