<svg width="40" height="40" viewBox="0 0 40 40" fill="none" xmlns="http://www.w3.org/2000/svg">
<path d="M31.6666 8.33334V31.6667M12.6658 29.8673L22.397 22.0823C23.2868 21.3705 23.7316 21.0146 23.8927 20.5847C24.0339 20.2077 24.0339 19.7923 23.8927 19.4153C23.7316 18.9854 23.2868 18.6295 22.397 17.9177L12.6658 10.1327C11.2788 9.02312 10.5853 8.46834 10.0017 8.46771C9.49415 8.46716 9.01399 8.69794 8.69735 9.09462C8.33325 9.55075 8.33325 10.4388 8.33325 12.215V27.785C8.33325 29.5612 8.33325 30.4493 8.69735 30.9054C9.01399 31.3021 9.49415 31.5328 10.0017 31.5323C10.5853 31.5317 11.2788 30.9769 12.6658 29.8673Z" stroke="#F5F7FA" stroke-width="2" stroke-linecap="round" stroke-linejoin="round"/>
</svg>
