<svg width="28" height="28" viewBox="0 0 26 34" fill="none" xmlns="http://www.w3.org/2000/svg">
<path d="M1.33325 5.31605C1.33325 3.69744 1.33325 2.88814 1.67074 2.44202C1.96474 2.05337 2.41412 1.81287 2.90058 1.78383C3.45898 1.75049 4.13236 2.19941 5.47912 3.09725L23.0051 14.7812C24.1179 15.5231 24.6743 15.894 24.8682 16.3616C25.0377 16.7703 25.0377 17.2297 24.8682 17.6385C24.6743 18.106 24.1179 18.4769 23.0051 19.2188L5.47912 30.9028C4.13236 31.8006 3.45898 32.2495 2.90058 32.2162C2.41412 32.1871 1.96474 31.9466 1.67074 31.558C1.33325 31.1119 1.33325 30.3026 1.33325 28.684V5.31605Z" stroke="#F5F7FA" stroke-width="2" stroke-linecap="round" stroke-linejoin="round"/>
</svg>
