<svg width="28" height="28" viewBox="0 0 32 36" fill="none" xmlns="http://www.w3.org/2000/svg">
<path d="M31 16.3333L18.3431 3.67648C17.4784 2.81172 17.046 2.37934 16.5414 2.07013C16.0941 1.79599 15.6063 1.59397 15.0962 1.47148C14.5207 1.33333 13.9092 1.33333 12.6863 1.33333L6 1.33333M1 12.5L1 15.7909C1 16.6062 1 17.0138 1.0921 17.3974C1.17376 17.7376 1.30844 18.0627 1.4912 18.3609C1.69734 18.6973 1.98559 18.9856 2.5621 19.5621L15.5621 32.5621C16.8822 33.8822 17.5422 34.5422 18.3033 34.7895C18.9728 35.007 19.6939 35.007 20.3634 34.7895C21.1245 34.5422 21.7845 33.8822 23.1046 32.5621L27.2288 28.4379C28.5488 27.1178 29.2088 26.4578 29.4561 25.6967C29.6737 25.0272 29.6737 24.3061 29.4561 23.6366C29.2088 22.8755 28.5488 22.2155 27.2288 20.8954L15.0621 8.72876C14.4856 8.15226 14.1973 7.86401 13.861 7.65787C13.5627 7.4751 13.2376 7.34042 12.8974 7.25877C12.5138 7.16667 12.1062 7.16667 11.2909 7.16667H6.33333C4.46649 7.16667 3.53307 7.16667 2.82003 7.52998C2.19283 7.84956 1.68289 8.35949 1.36331 8.9867C1 9.69974 1 10.6332 1 12.5Z" stroke="#F5F7FA" stroke-width="2" stroke-linecap="round" stroke-linejoin="round"/>
</svg>
